<svg width="138.15" height="16.656" fill="none" xmlns="http://www.w3.org/2000/svg"><path d="M26.71 7.84h5.01c.44 2.36 0 4.83-1.87 6.53-1.37 1.35-3.19 2.19-5.21 2.19-4.24 0-7.7-3.72-7.7-8.28 0-4.56 3.46-8.28 7.7-8.28 2.45 0 4.61 1.22 6.03 3.14l-1.59 1.42c-1-1.49-2.61-2.45-4.44-2.45-3.09 0-5.59 2.76-5.59 6.17 0 3.4 2.5 6.16 5.59 6.16 1.73 0 3.27-.86 4.3-2.2.46-.77.7-1.61.72-2.5h-2.95v-1.9zm19.96.44c0 3.38 2.49 6.16 5.59 6.16 1.8 0 3.43-.96 4.44-2.44l1.58 1.41c-1.41 1.9-3.57 3.15-6.02 3.15-4.25 0-7.7-3.72-7.7-8.28 0-4.59 3.45-8.28 7.7-8.28 2.45 0 4.61 1.22 6.02 3.14L56.7 4.53c-1.01-1.49-2.64-2.45-4.44-2.45-3.1 0-5.59 2.79-5.59 6.2zM0 .02h1.96v14.57h5.43v1.97H0V.02zm15.89 9.53v1.97h-5.42v3.07h5.42v1.97H8.5V.02h7.18v1.97h-5.21v7.56h5.42zM36.66.02h2.91l3.55 16.54h-2.09L38.1 2.66l-2.93 13.9h-1.96L36.66.02zm31.17 0h2.21l-4.76 8.47v8.07h-1.96V8.47L58.59.02h2.21l3.52 6.29L67.83.02zM82.32 7.8l-.53 1.08.53.88h-.96v6.8h-1.97V.02h1.97V7.8h.96zm4.32 0V.02h1.97v16.54h-1.97v-6.8h-.87l.48-.88-.48-1.08h.87zm30.53 3.09V6.72l-4.7 4.41-4.78-4.46v9.89h-1.97V.02h1.97l4.78 4.46 4.7-4.46h1.97v10.82l-.12-.24-.82-1.65-.89 1.65-.14.29zm10.57-1.34v1.97h-5.43v3.07h5.43v1.97h-7.39V.02h7.17v1.97h-5.21v7.56h5.43zM89.71 8.3c0-4.56 3.44-8.26 7.68-8.26 4.23 0 7.66 3.7 7.66 8.26s-3.43 8.26-7.66 8.26c-4.24 0-7.68-3.7-7.68-8.26zm48.43 3.62c.03 1.44-.19 2.62-3.02 4.73l-1.18-1.58c2.24-1.67 2.24-2.27 2.23-3.07v-.32c0-.74 0-1.56-2.78-2.54-3.93-1.42-4.75-3.46-4.73-4.92.05-1.73 1.61-4.1 4.49-4.1 3 0 4.37 2.54 4.42 2.64l-1.75.91c-.03-.05-.89-1.61-2.67-1.61-1.87 0-2.49 1.63-2.52 2.18-.02 1.18 1.2 2.26 3.43 3.05 3.39 1.2 4.06 2.62 4.06 4.39l.02.24zM91.83 8.3c0 3.38 2.49 6.14 5.56 6.14 3.08 0 5.57-2.76 5.57-6.14s-2.49-6.14-5.57-6.14c-3.07 0-5.56 2.76-5.56 6.14zm20.64-1.18l-4.78-4.46v1.39l4.78 4.44 4.7-4.39V2.71l-4.7 4.41zm-29.29.68l.89-1.8.82 1.8.5 1.08-1.32 2.32-.86-1.44-.56-.88.53-1.08zm-45.05 5.61l-1.4-2.3 1.42-2.91 1.3 2.91-1.32 2.3zm80.89.03l-.82 1.44-.89-1.44-.52-.87.52-1.1.89-1.8.82 1.8.5 1.1-.5.87zm-1.71.67l.89 1.44.82-1.44.12-.22v2.67h-1.97v-2.72l.14.27z" fill="#1C1C1C" fill-rule="evenodd"/></svg>