<svg width="118.051" height="122" fill="none" xmlns="http://www.w3.org/2000/svg"><path d="M102.09 82.44a13.79 13.79 0 00-4.67-8.33 13.796 13.796 0 00-8.97-3.28c-6.62 0-12.49 5.09-13.48 11.68-.41 2.65-.15 5.32-.2 7.97 0 .72-.15.92-.88.73a78.483 78.483 0 00-13.78-2.28c-7.48-.65-15-.49-22.44.48-3.13.37-6.22.98-9.26 1.8-.71.2-.92 0-.88-.73.06-1.14 0-2.3 0-3.44h-.03c0-1.06.05-2.13 0-3.19-.36-8.46-8.69-14.67-16.9-12.63A13.78 13.78 0 000 84.84c.05 3.12 1.16 6.13 3.14 8.53 1.99 2.4 4.73 4.05 7.79 4.69.75.16.89.43.88 1.1-.04 2.26-.02 4.51 0 6.77.01 4.38 2.77 7.56 7.09 8.14.66.08.8.26.78.86-.03 1.6-.02 3.2 0 4.8 0 1.52.75 2.24 2.28 2.26 1.72 0 3.44-.03 5.16 0 1.18.03 1.91-.47 2.41-1.52.9-1.88 1.87-3.72 2.77-5.59.08-.24.25-.45.46-.59.22-.14.48-.21.74-.18 11.76.02 23.52.02 35.28 0 .72 0 .99.29 1.27.85.93 1.91 1.89 3.81 2.83 5.71a2.181 2.181 0 002.15 1.32c1.8-.02 3.61 0 5.4 0 1.44-.02 2.18-.76 2.2-2.21.03-1.56.03-3.12 0-4.67 0-.65.03-.95.86-1.06 4.18-.52 6.99-3.75 7.02-7.95.02-2.3.03-4.61 0-6.91 0-.74.19-.98.96-1.16 3.43-.74 6.45-2.78 8.42-5.68 1.98-2.9 2.76-6.45 2.2-9.91zm-74.9 33.93c-.45 1.47-1.39 1.91-2.84 1.71-.53-.07-.75-.12-.77-.74-.14-3.22-.16-3.22 3.05-3.22h1.65c-.44.86-.87 1.52-1.09 2.25zm51.5-1.58c-.04.44 0 .9 0 1.35 0 2.07 0 2.06-2.13 1.93a.897.897 0 01-.51-.12.91.91 0 01-.34-.41c-.35-.77-.76-1.52-1.15-2.3-.16-.33-.31-.65-.53-1.12 1.44 0 2.71.02 3.98 0 .51-.02.72.12.68.69v-.02zM88.9 94.43c-1.71.1-2.34.74-2.35 2.45v8.86c0 2.94-1.55 4.44-4.49 4.44H20.33c-3.09 0-4.61-1.5-4.61-4.6v-8.61c0-1.81-.6-2.45-2.37-2.54a9.863 9.863 0 01-6.78-3.14 9.862 9.862 0 01-2.64-7c.12-5.26 4.57-9.53 9.92-9.53 2.57.02 5.03 1.05 6.85 2.86a9.877 9.877 0 012.89 6.84c.04 2.46 0 4.93.02 7.38.03.23-.02.47-.15.67-.14.19-.34.33-.57.39-1.15.41-2.27.93-3.41 1.37-.63.24-.81.51-.39 1.14.55.81.81 2.06 1.54 2.43.74.36 1.74-.58 2.63-.92 5.79-2.17 11.79-3.35 17.92-3.97 6.61-.67 13.27-.67 19.88 0 6.78.7 13.43 1.97 19.72 4.75.73.33 1.09.28 1.37-.46.14-.3.3-.58.48-.86.98-1.78.98-1.78-.93-2.61-.07-.03-.15-.06-.23-.09-.9-.36-2.22-.49-2.61-1.16-.47-.8-.19-2.06-.16-3.12.05-2.17-.22-4.35.19-6.5.95-5.07 5.56-8.61 10.55-8.11 2.5.24 4.81 1.42 6.46 3.3a9.831 9.831 0 012.45 6.83 9.915 9.915 0 01-2.86 6.61 9.869 9.869 0 01-6.59 2.9z" fill="#FFF"/><path d="M118.03 8.45c0-5.16-3.29-8.44-8.44-8.45H78.37c-7.75 0-15.5-.02-23.24 0-1.97-.01-3.86.72-5.32 2.04a7.863 7.863 0 00-2.57 5.08c-.25 2.71-.25 2.63 2.43 2.75 1.23.05 1.56-.27 1.52-1.51-.1-2.83 1.54-4.43 4.35-4.43 8 0 15.99.02 23.98-.02 1.02 0 1.16.32 1.16 1.22-.03 12.49-.03 24.99-.02 37.5 0 2.63 0 2.55 2.67 2.66 1.16.04 1.29-.36 1.29-1.36-.03-12.92 0-25.83-.04-38.74 0-.97.14-1.29 1.22-1.29 7.95.06 15.9.03 23.85.03 2.91 0 4.46 1.57 4.46 4.49v97.27c0 2.93-1.54 4.48-4.46 4.49H95.14c-2.68 0-2.64 0-2.69 2.74 0 .89.13 1.34 1.16 1.22.85-.11 1.72.02 2.58-.04.3-.05.6 0 .86.16.26.15.45.39.55.68.9 1.93 1.88 3.81 2.82 5.72a2.164 2.164 0 002.14 1.33c1.76-.02 3.53 0 5.29 0 1.59-.02 2.3-.73 2.32-2.34.02-1.61 0-3.2 0-4.79 0-.45 0-.69.61-.78 4.74-.72 7.27-3.7 7.27-8.48V57.03c0-16.19-.01-32.38-.02-48.58zm-11.8 106.44c-.03.41 0 .82 0 1.22 0 2.09 0 2.07-2.1 1.98-.2.01-.4-.05-.56-.16a.912.912 0 01-.36-.46c-.5-1.06-1.05-2.11-1.64-3.34 1.44 0 2.71.04 3.97 0 .62-.05.74.21.69.76z" fill="#FFF"/><path d="M14.45 41.32h13.76c1.05 0 2.41-.45 3.08.18.61.58.17 1.94.15 2.96 0 .66.2.86.83.8 1.01-.09 2.35.42 2.94-.2.5-.53.23-1.86.17-2.83-.05-.78.22-.94.96-.93 2.74.05 5.48.02 8.21.02h7.75c2.28 0 2.9-.71 2.7-3.01-.63-7.39-1.26-14.77-1.88-22.16-.15-1.79-.76-2.37-2.56-2.38H38.51c-1.01 0-2.34.44-2.94-.18-.5-.53-.22-1.86-.16-2.83.04-.78-.21-1-.96-.92-.96.1-2.25-.4-2.82.2-.48.5-.23 1.78-.16 2.71.07.92-.24 1.06-1.08 1.05-4.75-.04-9.51-.02-14.26-.01-1.54 0-2.27.62-2.39 2.02-.66 7.59-1.3 15.18-1.92 22.77-.14 2 .57 2.74 2.63 2.74zm1.51-5.05c.54-5.95 1.03-11.91 1.49-17.87.06-.78.49-.69.98-.69h7.99c7.25 0 14.5 0 21.75-.02.93 0 1.21.21 1.28 1.18.42 5.72.9 11.43 1.44 17.14.1 1.08-.12 1.42-1.29 1.4-5.41-.07-10.82-.03-16.22-.03-5.41 0-10.9-.02-16.34.03-.94.01-1.16-.21-1.09-1.14h.01zm-3.99 30.45c.59.59 1.87.09 2.83.19.77.09.96-.18.95-.94-.05-2.87-.03-5.74 0-8.6 0-2.58 1.64-4.24 4.2-4.24H82.4c2.5 0 4.14 1.65 4.16 4.17v6.76c0 2.87 0 2.84 2.94 2.86.78 0 1.04-.17 1.02-.99-.06-2.74-.02-5.49-.02-8.23 0-5.24-3.29-8.5-8.52-8.5H19.77c-4.51 0-7.92 3.43-7.96 7.93-.03 2.25-.03 4.5 0 6.76 0 .96-.43 2.24.16 2.83z" fill="#FFF"/><path d="M43.27 62.93c0-1.93 0-1.93-1.88-1.93-2.05 0-2.05 0-2.05 2 0 1.93 0 1.93 1.87 1.93 2.06 0 2.06 0 2.06-2zM60.86 61c-1.85 0-1.85 0-1.85 1.83 0 2.1 0 2.1 2.08 2.1 1.85 0 1.85 0 1.85-1.83.02-2.1.02-2.1-2.08-2.1zM29.5 72.7c0 2.07 0 2.07 1.99 2.07s1.94 0 1.94-1.99c0-1.95 0-1.95-1.99-1.95-1.94 0-1.94 0-1.94 1.87zm19.67.22c0 1.85 0 1.85 1.83 1.85 2.1 0 2.1 0 2.1-2.08 0-1.86 0-1.86-1.83-1.86-2.1 0-2.1 0-2.1 2.09zm19.68-.26c0 2.11 0 2.11 2.07 2.11 1.86 0 1.86 0 1.86-1.83 0-2.11 0-2.11-2.07-2.11-1.86 0-1.86 0-1.86 1.83zM41.3 84.61c1.97 0 1.97 0 1.97-1.98 0-1.97 0-1.97-1.97-1.97s-1.97 0-1.97 1.97c0 1.98.01 1.98 1.97 1.98zm19.78-3.94c-2.07 0-2.07 0-2.07 2.11 0 1.83 0 1.83 1.86 1.83 2.07 0 2.07 0 2.07-2.11.02-1.83.02-1.83-1.86-1.83zm-47.33-1.96a5.902 5.902 0 00-4.19 1.76c-.54.55-.97 1.21-1.27 1.93-.29.73-.44 1.5-.43 2.28a5.93 5.93 0 001.77 4.12 5.889 5.889 0 006.42 1.24 5.942 5.942 0 003.18-3.23 5.877 5.877 0 00-1.33-6.4 5.924 5.924 0 00-4.15-1.7zm.08 7.86c-.26.01-.53-.03-.77-.13-.25-.09-.48-.24-.67-.42a2.022 2.022 0 01-.6-1.42c.01-.52.22-1.01.58-1.37.37-.37.86-.57 1.38-.58.51 0 1 .2 1.37.56.37.36.58.85.6 1.36 0 .52-.19 1.01-.54 1.39-.35.37-.84.59-1.35.61zm74.72-7.86a5.906 5.906 0 00-5.91 5.8c-.01.78.13 1.55.42 2.28a5.915 5.915 0 003.18 3.24c.71.31 1.48.47 2.26.47 1.57 0 3.07-.62 4.18-1.73a5.912 5.912 0 001.74-4.18 5.935 5.935 0 00-1.73-4.15 5.894 5.894 0 00-4.14-1.73zm.03 7.86c-.27.01-.53-.04-.78-.14-.25-.09-.47-.24-.66-.43-.19-.18-.34-.41-.44-.65-.1-.25-.15-.51-.15-.78.01-.51.22-1.01.59-1.37a1.993 1.993 0 012.77 0c.36.36.58.86.59 1.37a1.983 1.983 0 01-1.91 2h-.01z" fill="#FFF"/></svg>