<svg width="130.105" height="130" fill="none" xmlns="http://www.w3.org/2000/svg"><defs><filter id="a" x="0" y="0" width="130.105" height="130" filterUnits="userSpaceOnUse" color-interpolation-filters="sRGB"><feFlood flood-opacity="0" result="BackgroundImageFix"/><feColorMatrix in="SourceAlpha" values="0 0 0 0 0 0 0 0 0 0 0 0 0 0 0 0 0 0 127 0" result="hardAlpha"/><feOffset dy="4"/><feGaussianBlur stdDeviation="1.333"/><feComposite in2="hardAlpha" operator="out" k2="-1" k3="1"/><feColorMatrix values="0 0 0 0 0 0 0 0 0 0 0 0 0 0 0 0 0 0 0.25 0"/><feBlend in2="BackgroundImageFix" result="effect_dropShadow_1"/><feBlend in="SourceGraphic" in2="effect_dropShadow_1" result="shape"/></filter></defs><g filter="url(#a)" fill="#FFF"><path d="M115.2 63.35c-.66-.15-1.07-.25-1.04-1.16.32-9.1-1.91-17.59-6.4-25.48-.2-.3-.32-.65-.33-1.01-.01-.36.09-.71.28-1.02 7.37-14.33-1.29-31.63-17.17-34.4-.39-.07-.89.2-1.18-.28h-5.49c-1.84.63-3.82.84-5.64 1.57a23.657 23.657 0 00-11.46 9.45c-.39.6-.76.86-1.5.85a47.99 47.99 0 00-20.43 4.32c-.71.32-1.09.17-1.61-.34a13.66 13.66 0 00-7.14-3.8c-2.71-.52-5.51-.21-8.04.89a13.807 13.807 0 00-6.17 5.32 13.822 13.822 0 00-2.11 7.87c.09 2.88 1.11 5.65 2.91 7.9.51.64.55 1.12.11 1.84a47.86 47.86 0 00-6.83 22.28c-.05.71-.21.95-.96.93-1.11-.06-2.23-.05-3.33 0-.93.02-1.81.39-2.48 1.01-.67.63-1.1 1.49-1.19 2.4-.05.52-.07 1.03-.06 1.55v37.06c0 .81-.07 1.27-1.06 1.42-1.45.22-2.15 1.46-2.88 2.58v6.2c1.05 2.27 2.86 3.04 5.29 2.89 2.3-.14 4.61 0 6.91-.04.29-.03.58.02.83.16s.44.36.56.62c2.68 4.58 6.69 7.06 12 7.06s9.32-2.5 12-7.07a1.346 1.346 0 011.38-.77c6.83.02 13.67.02 20.5 0 .28-.03.56.04.81.18.24.15.44.36.55.62 2.7 4.56 6.69 7.06 12.02 7.05 5.26 0 9.24-2.47 11.93-6.99.37-.64.72-.9 1.45-.86 1.39.06 2.78.03 4.17 0 2.36-.04 3.97-1.6 4.05-3.94.12-3.62.11-7.23-1.12-10.7-.32-.89-.08-1.42.61-2.03 2.35-2.03 4.45-4.32 6.27-6.83.57-.78.82-.62 1.3.04 1.97 2.69 3.99 5.35 5.99 8.01.23.32.48.61.79.99 3.89-5.22 7.94-10.22 11.52-15.55 5.38-7.96.79-18.72-8.61-20.79zM84.23 4.08c10.61-1.2 20.14 5.88 21.84 16.27.93 5.67-.19 10.94-3.7 15.52-5.03 6.54-10.18 13-15.27 19.49-.13.19-.24.4-.34.61C81.32 49.02 76 42.3 70.78 35.51c-2.44-3.16-3.55-6.86-3.76-10.83-.54-10.23 7.17-19.46 17.21-20.6zM27.02 18.25a9.77 9.77 0 016.34-2.49c2.34-.05 4.62.74 6.43 2.23 3.79 3.15 4.85 8.57 2.12 12.65-2.54 3.83-5.45 7.41-8.2 11.1-.04.05-.14.06-.27.12-2.69-3.61-5.48-7.16-8.06-10.86-2.8-4.01-2.01-9.5 1.64-12.75zm-11.09 88.77c-.06.4-.08.79-.07 1.19 0 2.01 0 2.01-2.06 2.01h-1.78c-1.07 0-2.14-.04-3.21 0-.69.04-.84-.22-.86-.88-.07-3.05-.09-3.05 2.91-3.05 1.46 0 2.93.02 4.39 0 .59-.02.78.15.68.73zm23.53 1.42a9.838 9.838 0 01-3.02 6.89 9.876 9.876 0 01-7.01 2.75c-1.3-.03-2.58-.31-3.77-.83a9.877 9.877 0 01-3.17-2.22 9.7 9.7 0 01-2.06-3.26 9.743 9.743 0 01-.65-3.81c.14-5.42 4.71-9.67 10.25-9.52 5.23.13 9.6 4.77 9.43 10zm3.53-6.1a1.348 1.348 0 01-1.38-.79c-5.44-9.46-18.53-9.42-24.01.06-.11.25-.29.45-.53.58-.23.14-.51.19-.77.15-1.15-.06-2.31-.06-3.46 0-.81.06-.95-.24-.95-.99.03-7.19 0-14.38 0-21.56 0-5.25.02-10.49-.02-15.73 0-.89.21-1.13 1.1-1.12 4.53.06 9.06.06 13.59 0 .93 0 1.1.27 1.09 1.14-.05 4.56-.02 9.13-.02 13.91 3.04-1.52 5.95-2.94 8.82-4.43a2.015 2.015 0 012.08 0c2.86 1.5 5.78 2.9 8.81 4.41V64.75c0-1.79 0-1.79 1.83-1.79 4.29 0 8.58.03 12.87-.02.83 0 1.07.21 1.06 1.06-.02 12.43-.02 24.86 0 37.29 0 .84-.23 1.06-1.05 1.05-6.35-.02-12.71-.02-19.06 0zm.39-30.74c-1.81-.91-3.47-1.71-5.1-2.55-.22-.15-.48-.23-.75-.23-.27-.01-.53.07-.76.21-1.63.87-3.31 1.66-5.15 2.57v-8.16c0-.46.32-.47.64-.47h10.46c.67 0 .67.34.67.82-.02 2.52-.01 5.07-.01 7.81zm19.78 37.85c.07.68-.19.78-.78.78-6.11-.02-12.22-.02-18.32 0-.64 0-.8-.2-.74-.82.09-.79.09-1.58 0-2.37-.09-.73.23-.75.78-.75h9.28c2.97 0 5.95.02 8.92-.02.75 0 .95.17.86.92-.09.75-.09 1.51 0 2.26zm13.53 8.63c-5.45-.13-9.82-4.63-9.69-9.99.13-5.53 4.66-9.79 10.26-9.65 5.23.13 9.55 4.69 9.44 9.98a9.801 9.801 0 01-3.02 6.89 9.848 9.848 0 01-6.99 2.77zm10.94-18.16c-4.62-6.49-13.84-7.24-19.85-1.99-.2.17-.32.46-.79.45V75.7c0-.66.15-.89.85-.89 5.88.03 11.75 0 17.63.03 1.27 0 1.82.54 2.2 2.04.47 1.85.47 1.85-1.46 1.85h-7.02c-2.68.02-4.28 1.64-4.31 4.32 0 1.11-.02 2.23 0 3.33.05 2.53 1.68 4.17 4.2 4.18 3.53.02 7.07.05 10.6-.02 1.04-.02 1.51.2 1.75 1.3.7 3.21 1.54 6.39 2.37 9.56.2.74.06 1.05-.73.93a.244.244 0 00-.12 0c-2.28.29-3.79-.29-5.32-2.42v.01zm.61-17.2c.29 0 .74-.19.85.17.36 1.14.65 2.28.88 3.44.08.41-.4.26-.63.26-1.67.02-3.33 0-4.99 0-1.55 0-3.09-.03-4.64 0-.63 0-.88-.09-.89-.82-.05-3.08-.08-3.08 3.01-3.08 2.13 0 4.27-.01 6.41.01v.02zm4.21 27.52c-1.86 0-1.86 0-1.84-1.88 0-2.05 0-2.05 2.02-2.05 1.95 0 1.95 0 1.95 1.99 0 1.92 0 1.92-2.13 1.92v.02zm8.95-25.07c.8 1.09.88 1.75.02 2.81-1.68 2.06-3.35 4.11-5.42 6.05-.63-2.55-1.27-4.95-1.86-7.36-.9-3.61-1.78-7.23-2.68-10.83-.83-3.27-2.98-4.96-6.35-4.97-5.68 0-11.36-.03-17.03.02-.93 0-1.13-.26-1.1-1.13.06-2.1.02-4.21.02-6.31 0-2.82-1.52-4.34-4.34-4.34-13.83 0-27.65 0-41.47.02-1.09 0-1.36-.24-1.27-1.37.56-6.95 2.55-13.55 5.91-19.26.4.16.56.54.8.86 2.15 2.86 4.3 5.7 6.42 8.57.38.51.57.61 1 .03 3.59-4.84 7.3-9.6 10.8-14.52 2.73-3.82 3.21-8.11 1.59-12.56-.28-.78-.15-1.03.6-1.36a46.034 46.034 0 0116.38-3.71c.78-.04.99.03.73.92-2.3 8.15-.95 15.61 4.3 22.3 6.05 7.71 12.1 15.41 18.24 23.23l18.04-22.94c2.17 3.9 3.73 8.11 4.63 12.48.71 3.42 1.03 6.92.95 10.41 0 .72-.24 1.01-.95 1.19-10.03 2.4-14.09 13.45-7.96 21.75v.02zm18.9-2.72c-2.49 3.39-5.04 6.73-7.53 10.12-.45.61-.64.43-1-.05-2.48-3.35-5.03-6.65-7.47-10.02a9.725 9.725 0 010-11.47 9.831 9.831 0 014.91-3.59c1.97-.65 4.1-.66 6.08-.02 4 1.27 6.71 4.94 6.8 8.79.04 2.55-.53 4.51-1.79 6.22v.02z"/><path d="M53.24 51.19c-2 0-2 0-2 1.83 0 2.08 0 2.08 2.1 2.08 1.89 0 1.89 0 1.89-1.94s0-1.97-1.99-1.97zm7.91 0h-.24c-1.79 0-1.79 0-1.79 1.8 0 2.11 0 2.11 2.07 2.11 1.91 0 1.91 0 1.91-1.91 0-2 0-2-1.95-2zm7.72 0c-1.88 0-1.88 0-1.88 1.84 0 2.07 0 2.07 2.11 2.07 1.87 0 1.87 0 1.87-1.83 0-2.08 0-2.08-2.1-2.08zm17.81-11.84a15.756 15.756 0 0015.77-15.72c-.01-4.17-1.67-8.17-4.62-11.12a15.731 15.731 0 00-11.12-4.63c-2.06-.01-4.11.4-6.02 1.19a15.738 15.738 0 00-8.52 8.51c-.79 1.91-1.2 3.96-1.2 6.03-.01 2.06.4 4.11 1.18 6.02a15.738 15.738 0 008.51 8.52c1.91.79 3.96 1.2 6.02 1.2zm-.05-27.51c1.55-.02 3.09.28 4.52.86a11.8 11.8 0 013.84 2.54c1.1 1.09 1.98 2.38 2.58 3.81.59 1.43.9 2.96.91 4.51a11.86 11.86 0 01-3.41 8.36c-2.2 2.23-5.19 3.49-8.32 3.52-6.44.05-11.82-5.27-11.88-11.76 0-3.13 1.24-6.13 3.44-8.35 2.2-2.22 5.2-3.47 8.32-3.49zM33.58 31.48a5.9 5.9 0 004.16-1.75 5.897 5.897 0 001.73-4.17 5.92 5.92 0 00-1.77-4.16 5.924 5.924 0 00-4.18-1.69 5.89 5.89 0 00-4.16 1.74 5.887 5.887 0 00-1.72 4.17c.02 1.57.65 3.06 1.76 4.16a5.909 5.909 0 004.18 1.7zm0-7.86c.52.01 1.02.22 1.38.59.36.37.56.87.56 1.39-.01.52-.22 1.02-.58 1.38-.37.37-.87.58-1.39.58-.51-.01-1.01-.23-1.36-.6a1.94 1.94 0 01-.55-1.39c0-.25.05-.51.14-.74.1-.24.24-.45.42-.63s.39-.33.63-.42c.23-.1.48-.15.74-.16h.01zm78.71 47.23c-1.57.01-3.06.64-4.17 1.75a5.974 5.974 0 00-1.74 4.17 5.95 5.95 0 001.74 4.16 5.941 5.941 0 004.17 1.75 5.94 5.94 0 005.89-5.92 5.941 5.941 0 00-5.89-5.91zm0 7.85a1.882 1.882 0 01-1.39-.55c-.19-.18-.33-.39-.43-.63-.1-.23-.15-.49-.14-.74a1.882 1.882 0 01.55-1.39c.18-.18.4-.33.63-.43.24-.09.5-.14.75-.14.26 0 .51.04.75.14.24.09.46.23.64.41.18.18.32.4.42.64.1.23.15.49.15.74 0 .26-.05.51-.14.75-.1.24-.24.45-.42.64-.18.18-.39.32-.63.42-.23.1-.49.15-.74.14zm-82.71 23.65a5.914 5.914 0 00-4.16 1.75c-.54.56-.97 1.21-1.26 1.93-.29.72-.44 1.49-.43 2.26 0 .78.16 1.54.46 2.26.3.71.73 1.36 1.28 1.9.55.55 1.2.98 1.92 1.27.72.3 1.48.45 2.26.44 1.56-.01 3.05-.64 4.15-1.75a5.926 5.926 0 00-.04-8.35 5.884 5.884 0 00-4.18-1.71zm-.02 7.85c-.51-.01-1.01-.23-1.36-.6-.36-.38-.56-.88-.55-1.39.02-.52.24-1.01.62-1.37.38-.36.88-.55 1.4-.55.52.03 1 .25 1.36.62.36.37.55.87.55 1.39-.02.52-.24 1.01-.62 1.37-.37.35-.88.54-1.4.53zm47.24-7.85c-.77.01-1.54.17-2.25.47-.71.31-1.36.75-1.9 1.3-.54.55-.97 1.21-1.26 1.93a6.04 6.04 0 00-.42 2.26c.01.77.17 1.54.47 2.25.3.72.74 1.36 1.29 1.91.55.54 1.2.97 1.92 1.26.71.29 1.48.44 2.26.43.77-.01 1.53-.17 2.24-.47a5.95 5.95 0 001.9-1.3c.54-.55.97-1.21 1.26-1.92.29-.72.43-1.49.42-2.26a5.853 5.853 0 00-1.75-4.16 5.859 5.859 0 00-4.18-1.7zm0 7.85c-.52-.01-1.01-.23-1.37-.61-.36-.37-.55-.88-.54-1.39.02-.52.25-1.02.63-1.37.38-.36.88-.55 1.4-.54.52.02 1.01.24 1.36.62a2 2 0 01.55 1.39c-.02.52-.24 1.02-.63 1.37-.38.36-.88.55-1.41.53h.01z"/></g></svg>