<svg width="130.106" height="130" fill="none" xmlns="http://www.w3.org/2000/svg"><defs><filter id="a" x="0" y="0" width="130.106" height="130" filterUnits="userSpaceOnUse" color-interpolation-filters="sRGB"><feFlood flood-opacity="0" result="BackgroundImageFix"/><feColorMatrix in="SourceAlpha" values="0 0 0 0 0 0 0 0 0 0 0 0 0 0 0 0 0 0 127 0" result="hardAlpha"/><feOffset dy="4"/><feGaussianBlur stdDeviation="1.333"/><feComposite in2="hardAlpha" operator="out" k2="-1" k3="1"/><feColorMatrix values="0 0 0 0 0 0 0 0 0 0 0 0 0 0 0 0 0 0 0.25 0"/><feBlend in2="BackgroundImageFix" result="effect_dropShadow_1"/><feBlend in="SourceGraphic" in2="effect_dropShadow_1" result="shape"/></filter></defs><g filter="url(#a)" fill="#FFF"><path d="M124.82 73.56c-1.5-2.55-3.96-3.96-6.34-5.45-2.82-1.76-5.94-3-8.75-4.81-2.34-1.51-4.32-3.33-5.51-5.92-.36-.79-.33-1.31.34-1.96 2.74-2.66 5.42-5.38 8.11-8.08 2.16-2.17 2.16-4.39 0-6.56-4.04-4.05-8.1-8.08-12.13-12.14-1-1.02-2.11-1.69-3.56-1.57-.65.05-.8-.43-1.05-.8-5.52-7.86-11.02-15.73-16.52-23.6-.83-1.2-1.76-2.19-3.16-2.67h-1.91c-.57.43-1.28.65-1.82 1.18-7.69 7.71-15.38 15.41-23.07 23.11-1.33 1.34-1.55 3.13-.67 4.83.71 1.38 1.49 2.71 2.23 4.07.15.28.42.52.37 1.09-1.73-.97-3.3-1.86-4.9-2.7-1.75-.93-3.48-.77-4.84.54-2.07 1.98-4.08 4.01-6.06 6.07-.18.23-.41.41-.67.53-.25.13-.53.21-.82.22-6.69.45-13.37 1.08-19.9 2.79-2.99.78-5.96 1.66-8.41 3.71C4.7 46.35 4 47.45 4 48.91v7.87c0 1.22.39 2.31 1.28 3.1.67.58.76 1.2.76 1.99-.01 16.13.05 32.27-.07 48.4-.02 3.11 1.26 5.01 3.82 6.39 2.89 1.57 6.03 2.4 9.21 3.06 7.61 1.58 15.33 2.14 23.09 2.25 9.51.14 18.98-.35 28.32-2.27 3.58-.73 7.11-1.65 10.22-3.71 1.82-1.21 2.72-2.81 2.71-5.09-.06-11.04-.03-22.1-.03-33.14 0-.6.02-1.13.52-1.62 2.14-2.07 4.24-4.19 6.31-6.31.44-.45.8-.49 1.36-.24 1.96.8 3.67 2.1 4.96 3.78 1.37 1.7 2.43 3.62 3.43 5.56 1.45 2.86 2.93 5.71 4.87 8.29 4.03 5.35 10.79 5.9 15.65 1.27 2.44-2.33 4.81-4.69 5.69-8.11V76.8c-.51-1.04-.67-2.21-1.28-3.24zM43.94 35.52c.47-.49.78-.27 1.21-.03 3.53 1.98 7.06 3.94 10.61 5.89 1.47.81 2.96.18 3.24-1.32.12-.68-.19-1.23-.49-1.79-1.91-3.43-3.79-6.87-5.74-10.28-.36-.64-.32-.99.2-1.5 2.39-2.33 4.74-4.71 7.1-7.07 1.12-1.12 1.11-1.11 2.09.06l11.28 13.56c.21.24.41.48.62.73.9.97 2.04 1.12 2.95.37.91-.75 1.01-1.94.17-2.97-2.11-2.58-4.27-5.13-6.4-7.7-2.06-2.47-4.11-4.95-6.2-7.4-.42-.49-.43-.76.05-1.23 3.4-3.35 6.77-6.72 10.11-10.12.64-.64.87-.41 1.27.16 5.54 7.94 11.09 15.88 16.66 23.81.42.6.37.92-.15 1.45-9.32 9.29-18.62 18.59-27.91 27.9-.38.38-.63.69-1.25.25-8.21-5.79-16.44-11.54-24.81-17.39 1.85-1.84 3.65-3.59 5.39-5.38zm7.35 19.26c-10.8.35-21.16-.02-31.42-1.92 8.18-1.41 16.47-2.09 24.78-2.04.66-.02 1.32.18 1.86.59 1.48 1.08 3.01 2.12 4.78 3.37zM8.6 48.27a8.5 8.5 0 012.51-1.32c4.44-1.68 9.09-2.43 13.76-3.06 3.07-.42 6.16-.64 9.23-.88.27-.04.54-.01.79.08.25.1.47.26.64.46 1.15 1.26 2.76 1.97 4.25 3.26-2.39.13-4.52.24-6.66.36-7.21.46-14.36 1.26-21.31 3.38-.81.24-3.13-.83-3.56-1.55-.26-.45.15-.57.35-.73zm-.49 5.6c8.65 3.44 17.64 4.28 26.69 4.82 6.98.39 13.98.37 20.96-.06.63-.07 1.26.1 1.77.48 1.31.97 2.67 1.89 4.28 3.02-4.22.45-8.08.73-11.95.82-9.15.22-18.28-.07-27.34-1.43-3.92-.59-7.85-1.23-11.52-2.84-3.66-1.6-2.91-1.23-2.89-4.81zm71.13 57.6c0 .82-.63 1.16-1.22 1.48-2.55 1.44-5.37 2.13-8.2 2.72-9.7 2.02-19.52 2.43-29.39 2.2-7.71-.18-15.38-.83-22.9-2.67-2.05-.46-4.04-1.15-5.93-2.07-1.06-.53-1.53-1.25-1.52-2.52.06-7.71.03-15.42.03-23.13 0-7.78.02-15.57-.02-23.36 0-1.03.06-1.37 1.25-.97 5.26 1.78 10.72 2.56 16.21 3.12 9.22.91 18.49 1.07 27.73.48 2.34-.14 4.68-.33 7.01-.58.28-.06.58-.04.85.06.28.09.52.26.71.47 3.78 3.81 7.59 7.59 11.37 11.4.97.97 2 1.7 3.43 1.6.52-.03.59.22.59.63-.01 10.39-.01 20.76 0 31.14zm-.08-36.36c-.49.49-.73.49-1.19 0-3.89-3.92-7.79-7.83-11.71-11.71-.52-.51-.54-.77 0-1.3 10.12-10.09 20.22-20.2 30.31-30.33.58-.58.86-.51 1.39.02 3.85 3.9 7.72 7.78 11.62 11.64.22.18.47.33.73.46-.35.37-.49.54-.67.71-10.16 10.17-20.33 20.34-30.48 30.51zm41.01 7.85c-.93.97-1.89 1.93-2.87 2.86-1.2 1.14-2.65 1.7-4.51 1.72-.87-.02-1.71-.24-2.48-.64-.76-.4-1.43-.97-1.93-1.67a38.558 38.558 0 01-3.93-6.37c-1.22-2.45-2.48-4.88-4.08-7.11-1.55-2.15-3.38-4.01-5.76-5.23-.61-.32-.63-.51-.15-.97 1.9-1.87 3.77-3.76 5.65-5.65.35-.36.55-.47.84.09 1.94 3.72 5.17 6.03 8.72 8.01 3.25 1.82 6.69 3.29 9.68 5.57 3.25 2.47 3.65 6.42.82 9.39z"/><path d="M48.52 76.71c-.7-1.72-2-2.71-3.84-2.71-1.84 0-3.16.97-3.84 2.69-2.32 5.68-4.71 11.34-6.9 17.07-2.98 7.79 2.64 16.07 10.79 16.07.75-.05 1.5-.13 2.24-.26 7.08-1.53 11.06-8.99 8.4-15.9-2.2-5.69-4.56-11.31-6.85-16.96zm-.11 28.01a7.463 7.463 0 01-4.21.99 7.46 7.46 0 01-4.05-1.52c-2.43-1.92-3.64-5.46-2.54-8.46 1.6-4.38 3.43-8.68 5.16-13.01.6-1.5 1.22-3 1.9-4.67 1.77 4.38 3.48 8.59 5.15 12.82.77 1.94 1.84 3.78 2.19 5.88.49 3.21-.96 6.41-3.6 7.97zM16.03 79.36c-1.04.08-1.67.68-1.81 1.73-.04.4-.05.8-.04 1.2v24.57c-.01.4 0 .79.04 1.19.14 1.04.76 1.64 1.8 1.73 1.04.09 1.78-.37 2.08-1.39.12-.46.17-.93.15-1.41v-24.8c.02-.48-.03-.95-.15-1.41-.29-1.03-1.04-1.5-2.07-1.41zm.19-10.2c-1.42-.01-2.04.89-2.02 2.98 0 .4-.03.8 0 1.19.09 1.1.71 1.74 1.8 1.87 1.09.13 1.94-.51 2.17-1.6.07-.47.1-.94.08-1.42.01-2.05-.64-3-2.03-3.02zm79.8-31.03c-.18.15-.36.31-.52.49-5.06 5.06-10.12 10.11-15.18 15.17-.36.31-.64.71-.82 1.15-.1.3-.13.62-.08.94.05.31.17.61.35.87.18.26.42.47.7.62.29.15.6.23.92.24.77-.01 1.32-.43 1.84-.96 5.02-5.04 10.05-10.07 15.09-15.1.21-.19.39-.39.57-.61.28-.38.43-.86.4-1.34a2.051 2.051 0 00-1.88-1.91c-.5-.03-.99.13-1.39.44zM75.64 59.32c-1.28.02-3.43 2.19-3.43 3.47a1.933 1.933 0 001.04 1.75c.31.21.69.31 1.07.29.38-.02.74-.16 1.04-.41.73-.6 1.4-1.27 2-2 .5-.63.47-1.41.05-2.12-.17-.31-.43-.57-.75-.74-.31-.18-.67-.26-1.02-.24z"/></g></svg>