<svg xmlns="http://www.w3.org/2000/svg" width="122.812" height="122" fill="none"><path fill="#5C5C5C" d="M.41 43.11c1.96 9.27 9.81 15.94 19.28 16.13 6.62.14 13.25.14 19.89 0 5.17-.08 10.1-2.16 13.77-5.8 3.66-3.65 5.77-8.57 5.88-13.74.18-6.75.18-13.5 0-20.25C59 10.5 52.83 2.96 44.18.65c-.9-.24-1.86-.19-2.7-.65H17.5c-.93.56-2.03.5-3.03.83C6.9 3.4 2.19 8.52.39 16.31c-.09.39.06.9-.39 1.18v24.45c.45.28.33.79.41 1.17zm4.38-22.56c.02-8.97 6.78-15.74 15.75-15.76h18.21c8.9.02 15.6 6.62 15.74 15.51.05 3.12 0 6.23 0 9.35 0 3.11.03 6.15 0 9.22-.08 7.87-5.16 13.94-12.88 15.41-.95.15-1.9.22-2.86.2-6.03.02-12.06.02-18.09 0-9.15 0-15.86-6.73-15.87-15.86-.01-6.01-.01-12.04 0-18.07zm34.66 42.12c-6.54-.12-13.1-.12-19.65 0-9.51.17-17.42 6.83-19.39 16.15-.09.39.03.89-.41 1.16v24.46c.43.24.27.71.35 1.06 2.12 9.87 10.18 16.42 20.28 16.43 6.16 0 12.31.04 18.46 0 10.98-.07 19.86-8.61 20.15-19.58.18-6.7.18-13.41 0-20.13a19.991 19.991 0 00-5.94-13.77 20.026 20.026 0 00-13.85-5.78zm15.05 38.6c-.05 9.24-6.73 15.87-15.99 15.87H20.54c-8.97-.01-15.73-6.79-15.75-15.75V83.18c.02-8.97 6.75-15.7 15.76-15.73 6.07-.01 12.13-.01 18.2 0 8.97.02 15.64 6.62 15.74 15.61.04 3.08 0 6.15 0 9.23.01 2.99.02 5.98.01 8.98zm28.65-42.02c6.62.14 13.25.14 19.89 0a20.19 20.19 0 0013.92-6.02c3.68-3.75 5.75-8.78 5.77-14.03.04-6.35.04-12.7 0-19.06-.03-4.46-1.53-8.79-4.27-12.32A20.243 20.243 0 00107.57.66c-.86-.23-1.78-.2-2.56-.65H81.03c-.09.32-.37.22-.59.26-9.83 1.75-16.77 9.71-16.98 19.68-.12 6.59-.15 13.18.02 19.77.12 5.16 2.24 10.08 5.9 13.72 3.67 3.64 8.6 5.72 13.77 5.81zM68.23 20.63c.05-9.16 6.75-15.81 15.92-15.82h17.97c9.05 0 15.8 6.75 15.82 15.8v18.21c-.02 8.9-6.76 15.65-15.7 15.7-6.15.01-12.3.01-18.45 0-8.74-.04-15.44-6.69-15.56-15.43-.05-3.21 0-6.39 0-9.58 0-2.99-.01-5.94 0-8.88zm54.46 61.39c-.21-10.19-8.73-18.94-18.93-19.28-7.19-.24-14.39-.23-21.57 0-9.77.32-18.22 8.88-18.67 18.64-.16 3.59-.02 7.19-.02 10.79 0 3.59-.14 7.19.02 10.78.46 10.19 9.13 18.72 19.31 18.94 6.84.14 13.67.14 20.51 0 10.35-.22 19.17-9.04 19.38-19.39.12-6.82.12-13.65-.03-20.48zm-4.75 19.36c-.02 8.97-6.79 15.75-15.75 15.76H83.98c-8.94-.02-15.66-6.69-15.74-15.63-.03-3.08 0-6.15 0-9.23 0-3.07-.02-6.07 0-9.1.06-9.11 6.73-15.73 15.86-15.74h18.08c9 .02 15.74 6.75 15.76 15.73.01 6.07.01 12.14 0 18.21z"/></svg>