<svg width="118.885" height="122" fill="none" xmlns="http://www.w3.org/2000/svg"><path d="M109.98 44.35c-3.13-3.15-6.29-6.28-9.42-9.42-1.1-1.11-.82-2.05.69-2.49 3.36-1.01 6.72-2.05 10.09-3.02 1.13-.32 2-.87 2.01-2.15.01-1.29-.84-1.85-1.98-2.18-3.32-.97-6.62-2.05-9.96-2.93-1.03-.27-1.36-.78-1.57-1.73-.64-2.93-1.4-5.84-2.08-8.77-.27-1.23-.79-2.15-2.16-2.16-1.37-.02-1.91.9-2.19 2.12-.66 2.93-1.47 5.83-2.04 8.78-.23 1.16-.82 1.54-1.84 1.88-1.01.33-1.63 0-2.36-.73C82.1 16.43 76.99 11.37 71.9 6.26c-3.27-3.27-7.19-5.11-13.39-5.13-3.27 0-7.26 1.87-10.63 5.26-9.36 9.4-18.75 18.8-28.15 28.17-3.65 3.65-7.38 7.22-10.89 11-3.52 3.77-4.74 8.21-4.05 13.27.57 4.14 2.64 7.44 5.6 10.24.41.38 1.05.64.79 1.48-1.72 5.63-2.8 11.47-5.83 16.67-1.52 2.6-2.98 5.22-4.62 7.74-1.06 1.64-1 2.29.33 3.62 7.44 7.44 14.88 14.88 22.32 22.31 1.34 1.34 2.05 1.45 3.62.39 6.83-4.54 13.99-8.6 20.32-13.89.58-.48.91-.49 1.52 0 7.37 6.24 16.38 5.88 23.2-.92 12.65-12.63 25.29-25.26 37.92-37.91 7.16-7.15 7.16-17.04.02-24.21zM91.7 25.98c2.18-.38 3.28-1.61 3.52-3.75-.02-.2.01-.41.09-.6s.21-.35.37-.48c.21.67.38 1.36.52 2.05.2 1.39 1.01 2.13 2.33 2.48 1.64.41 3.22.93 4.82 1.39l.04.32c-1.34.41-2.66.89-4.03 1.16-2 .41-3.17 1.45-3.37 3.52-.06.39-.15.77-.27 1.15-.16-.06-.31-.08-.31-.11-.11-3.08-1.95-4.44-4.77-4.91a7.494 7.494 0 01-2.81-1.13c1.27-.44 2.56-.8 3.87-1.09zm-62.95 89.2c-1.05.61-2.15 1.84-3.11 1.74-.96-.1-1.81-1.49-2.67-2.35-5.78-5.78-11.56-11.55-17.34-17.33-.47-.46-.97-.8-.38-1.64 5.41-7.62 8.02-16.39 10.36-25.29 2.02-7.68 4.27-15.3 6.43-22.94.57-1.99 2.14-3.11 3.94-2.86 1.79.25 3.15 1.76 3.13 3.94-.62 2.67-1.31 5.7-2.01 8.73-.65 2.82-1.31 5.65-1.98 8.48-.28 1.23-.35 2.38.97 3.05 1.23.62 2.11-.06 2.96-.9 9.63-9.65 19.27-19.29 28.91-28.94.99-.98 2.02-1.72 3.51-1.32.49.11.94.34 1.31.68.38.33.66.75.83 1.22.18.47.23.97.15 1.47-.07.49-.27.96-.56 1.36-.32.4-.67.77-1.05 1.12L41.67 63.88c-.33.31-.65.64-.95.99-.79.99-.78 2 .13 2.87.92.86 1.84.8 2.77.07.35-.3.69-.62 1-.95l26.43-26.44c.38-.41.79-.8 1.23-1.15.58-.47 1.32-.71 2.07-.66.75.06 1.45.39 1.97.93a3.025 3.025 0 01.23 4.04c-.32.4-.67.77-1.04 1.12-8.89 8.88-17.77 17.76-26.65 26.65-.42.38-.78.8-1.09 1.27-.54.92-.3 1.79.45 2.48.3.32.71.53 1.15.57.44.05.88-.07 1.24-.32.46-.32.88-.69 1.26-1.1 6.39-6.39 12.79-12.78 19.18-19.17.42-.45.87-.86 1.36-1.23.61-.43 1.36-.63 2.11-.54.74.08 1.43.44 1.92 1 .49.53.77 1.21.82 1.93.04.72-.16 1.43-.58 2.02-.34.44-.72.85-1.13 1.23C68.8 66.25 62.05 73 55.29 79.75c-.38.34-.73.71-1.05 1.12-.31.38-.47.86-.44 1.35.03.5.24.96.6 1.3a1.898 1.898 0 002.63.31c.41-.3.79-.64 1.13-1.02 4.85-4.84 9.69-9.67 14.52-14.52.46-.55 1.03-.99 1.68-1.29.59-.25 1.26-.3 1.88-.14.62.17 1.17.54 1.56 1.06.41.47.65 1.06.69 1.68.03.62-.14 1.23-.5 1.74-.35.51-.76.97-1.22 1.37-6.25 6.25-12.64 12.37-18.71 18.78a135.986 135.986 0 01-29.31 23.69zm79.23-50.6c-1.16 1.3-2.42 2.49-3.65 3.72-11.81 11.81-23.62 23.61-35.43 35.42-4.68 4.67-11.44 5.19-16.39 1.38-.94-.73-1.18-1.09-.16-2.1 9.46-9.32 18.86-18.7 28.22-28.12 3.69-3.72 2.58-8.83-2.51-11.87 2.13-1.91 3.72-4.1 3.42-7.12-.3-3.02-1.95-5.07-5.03-6.43 1.06-.96 2.05-1.75 2.9-2.65 2.81-2.98 2.78-7.37 0-10.19a7.26 7.26 0 00-5.09-2.13c-1.91-.02-3.75.71-5.13 2.03-.5.54-.98 1.11-1.41 1.7-2.89-5.63-8.44-6.51-12.66-2.3-7.58 7.58-15.17 15.16-22.74 22.76-.36.43-.67.89-.94 1.38l-.5-.37c.75-3.28 1.49-6.59 2.25-9.88.7-3.04-.21-5.57-2.48-7.58-2.26-2.01-4.94-2.39-7.74-1.43-2.52.87-4.12 2.69-4.84 5.3-1.76 6.32-3.54 12.63-5.39 19.19a11.38 11.38 0 01-3.78-7.52c-.41-3.95.88-7.32 3.69-10.13C25.45 34.79 38.31 21.93 51.16 9.08c5.01-4.99 12.29-5.14 17.29-.3 5.01 4.84 9.78 9.73 14.65 14.6.16.19.31.39.45.6l-3.86 1.15c-1.07.32-1.83.91-1.83 2.13 0 1.22.79 1.81 1.85 2.12 3.37 1 6.73 2.03 10.12 2.96.39.07.75.26 1.03.55.27.29.45.66.49 1.05.65 2.99 1.43 5.95 2.1 8.93.27 1.23.82 2.14 2.18 2.14 1.35 0 1.91-.93 2.17-2.15.26-1.22.59-2.43.86-3.51 3.28 3.19 6.76 6.15 9.76 9.55 3.89 4.42 3.56 11.21-.44 15.68zm-7.28 37.91c-1.93.02-3.78.79-5.14 2.17a7.296 7.296 0 00-2.13 5.16c0 .96.19 1.91.55 2.79a7.293 7.293 0 003.94 3.95c.89.36 1.84.55 2.79.55 1.94.01 3.79-.75 5.17-2.1a7.336 7.336 0 002.21-5.13c0-1.96-.78-3.83-2.17-5.22a7.355 7.355 0 00-5.22-2.17zm.04 10.46c-.82-.01-1.61-.34-2.19-.92-.58-.58-.91-1.37-.91-2.19-.01-.82.31-1.61.88-2.2a3.1 3.1 0 012.16-.97c.85 0 1.66.33 2.26.93.6.6.93 1.41.93 2.26-.02.82-.36 1.6-.94 2.18-.58.58-1.37.9-2.19.91zM15.78 12.49c.76.06 1.52.06 2.28 0 .76.05 1.53.05 2.29 0 .52-.01 1.01-.23 1.37-.61.36-.37.55-.87.55-1.39.03-.26.01-.52-.07-.76-.07-.25-.19-.48-.36-.68-.17-.2-.37-.36-.61-.48-.23-.11-.48-.18-.74-.19-1.62-.14-3.24-.14-4.86 0-1.08.09-1.7.91-1.68 2.02a1.897 1.897 0 00.47 1.43c.17.2.38.36.61.47.23.12.49.18.75.19zm-12.31.03c.66.05 1.32 0 1.98 0 .76.04 1.53.04 2.29 0 1.22-.12 1.97-.87 1.97-2.1.02-.26-.02-.52-.1-.76-.09-.25-.22-.47-.4-.67a1.912 1.912 0 00-1.37-.62c-1.52-.12-3.04-.12-4.56 0-.28 0-.54.06-.79.18a1.8 1.8 0 00-.64.48c-.18.21-.31.45-.39.71-.08.26-.1.53-.06.8.06 1.25.85 1.89 2.07 1.98zm6.3-6.11c0 .25.05.49.14.72.1.22.23.43.4.6.18.17.38.31.61.41.22.09.47.14.71.14 1.19.09 2.07-.48 2.18-1.66.13-1.63.13-3.26 0-4.89-.09-1.19-.95-1.8-2.13-1.73-.26 0-.51.05-.75.15-.24.1-.45.24-.63.43-.18.18-.32.4-.42.64-.09.24-.14.49-.13.75-.04.71 0 1.43 0 2.15 0 .71-.06 1.53.02 2.29zm.02 12.66c.01.24.07.48.17.71.11.22.25.42.43.58.19.17.4.29.63.38.23.08.47.11.72.1 1.12.04 1.92-.51 2.07-1.64.22-1.67.22-3.36 0-5.03-.15-1.11-.96-1.68-2.05-1.64-.5-.02-.98.15-1.34.49-.37.33-.59.79-.62 1.29a17.5 17.5 0 000 2.29c-.05.82-.06 1.65-.01 2.47zm106.82 69.86c-.6.03-1.16.28-1.57.7-.42.42-.66.99-.67 1.58.02.59.27 1.15.69 1.57.43.41.99.65 1.58.66.6-.02 1.16-.27 1.57-.69.42-.42.66-.99.67-1.58a2.35 2.35 0 00-.7-1.56c-.42-.42-.98-.66-1.57-.68z" fill="#FFF"/></svg>