<svg width="116.036" height="122" fill="none" xmlns="http://www.w3.org/2000/svg"><defs><clipPath id="a"><path fill="#fff" fill-opacity="0" d="M0 0h116.036v122H0z"/></clipPath></defs><path d="M0 0h116.036v122H0z"/><g clip-path="url(#a)"><path d="M112.53 110.08c-.95-3.73-1.89-7.46-4.06-10.72-.48-.72-.46-.99.3-1.52 5.34-3.71 7.75-8.84 7.18-15.33a3.795 3.795 0 00-2.59-3.4 3.83 3.83 0 00-2.22-.22c-.74.14-1.43.5-1.97 1.04-1.3 1.17-2.58 2.35-3.9 3.5-1.53 1.34-3.56 1.37-4.97.11-1.46-1.3-1.69-3.23-.56-4.94.87-1.32 1.75-2.65 2.67-3.93 1.1-1.53 1.39-3.1.42-4.78-.98-1.68-2.55-2.11-4.39-1.96-4.32.34-8.33 2.38-11.15 5.68a16.355 16.355 0 00-3.88 11.89c.06.77-.18.85-.82.78-1.53-.19-3.07-.37-4.62-.48-3.15-.23-5.21-2.31-5.27-5.46-.04-1.91.02-3.82-.02-5.72-.02-.31.03-.62.16-.9.12-.29.31-.54.56-.74 2.81-2.45 5.35-5.2 7.57-8.2 2.83-3.9 4.46-8.14 4.25-13.06-.16-3.72 0-7.46-.05-11.19-.02-.98.28-1.24 1.2-1.16.95.05 1.91.05 2.86 0 1.64-.05 2.63-.98 2.65-2.43.02-1.46-1.02-2.45-2.71-2.5-.2-.01-.39-.01-.59 0-.58.07-.87-.09-.88-.75-.01-.8-.09-1.59-.23-2.37-1.75-10.51-7.38-18.18-16.88-23.02-.21-.08-.39-.23-.52-.42a1.04 1.04 0 01-.18-.64C69.63 3.04 66.46.03 62.25 0c-3.1-.03-6.2 0-9.3 0-4.45 0-7.51 2.71-7.96 7.15 0 .27-.09.52-.24.74-.15.22-.37.38-.62.47C34 13.72 28.25 22.03 27.24 33.52c-.06.7-.24 1.04-.96.94-.28-.03-.55-.03-.83 0-1.5.1-2.5 1.12-2.47 2.51.03 1.33 1.03 2.32 2.46 2.39.99.07 1.98.07 2.98 0 .95-.09 1.27.17 1.25 1.2-.06 3.89.05 7.79-.04 11.67-.11 4.08 1.11 7.72 3.29 11.1 2.36 3.67 5.36 6.77 8.57 9.69.37.32.78.6.77 1.24-.05 2.14.05 4.29-.05 6.43a5.316 5.316 0 01-4.68 5.07c-3.78.41-7.57.82-11.36 1.17-10.62.99-19.84 8.68-22.73 19.05-1.09 3.93-2.02 7.9-3.18 11.81-.54 1.8-.32 3.15 1.27 4.21h1.42c1.27-.49 1.79-1.48 2.12-2.73 1.24-4.63 2.11-9.37 3.85-13.84 2.7-6.89 7.79-11.2 14.97-13.08.82-.21 1.12-.15 1.09.79-.06 2.39-.04 4.78 0 7.15 0 .64-.12.96-.78 1.21-3.7 1.33-6.19 3.9-7.52 7.58-1.05 2.9-2.07 5.81-3.11 8.72-.78 2.17-.54 2.94 1.32 4.2h1.19c1.16-.42 1.76-1.28 2.15-2.43 1-2.96 2.05-5.9 3.12-8.83 1.11-3.08 3.6-4.97 6.82-4.98 13.32-.04 26.65-.02 39.97-.02.16.02.32.05.47.1-.93 1.2-1.83 2.32-2.32 3.7a9.371 9.371 0 00.41 7.27 9.43 9.43 0 002.28 2.93 9.23 9.23 0 003.24 1.8c.35.11.8.04 1.03.45h2.86c3.53-.58 5.78-2.91 7.92-5.52 2.23-2.73 4.62-5.33 6.9-8.02.54-.64.85-.6 1.31.03.54.73.96 1.54 1.27 2.4 1.02 2.86 2.08 5.73 3.05 8.6.37 1.1.9 1.99 1.96 2.51h1.19c1.92-.92 2.34-1.94 1.61-3.99-1.02-2.86-2.05-5.73-3.06-8.6-.58-1.81-1.57-3.47-2.9-4.84-.48-.48-.38-.72-.02-1.24 1.35-1.98 2.97-2.85 5.55-2.92 2.05-.05 2.82.69 3.68 2.16 1.79 3.06 2.45 6.49 3.38 9.83.62 2.21 1.23 4.42 1.74 6.66.29 1.25.81 2.27 1.93 2.94h1.43c1.79-1.04 2.12-1.83 1.59-3.88-.71-2.67-1.42-5.35-2.11-8.03zm-80.3-76.65c.81-8.07 4.61-14.36 11.28-18.94.45-.31.93-.6 1.41-.88.32-.18.63-.32 1.07-.56l2.71 12.17c.07.32.14.64.23.93.41 1.43 1.64 2.22 2.95 1.93.32-.06.63-.19.9-.38s.5-.43.68-.71c.17-.28.29-.59.34-.92.05-.32.03-.66-.06-.98-.8-3.83-1.68-7.65-2.52-11.48-.4-1.78-.81-3.55-1.19-5.34-.38-1.84.71-3.25 2.59-3.27 3.22-.04 6.43-.04 9.65 0 1.79.02 2.9 1.48 2.52 3.23-1.19 5.45-2.38 10.91-3.58 16.36-.38 1.73.15 2.94 1.51 3.42 1.53.55 2.93-.39 3.35-2.25.87-3.9 1.78-7.8 2.58-11.72.2-.98.46-.91 1.18-.49 7.67 4.55 11.92 11.25 12.89 20.1.13 1.18-.64.84-1.18.84H36.29c-1.03 0-2.07-.06-3.09.02-.89.07-1.05-.27-.97-1.08zm6.62 29.66c-1.91-2.41-3.53-4.97-4.08-8.08-.2-1.19-.11-2.37-.12-3.56 0-3.65.03-7.3-.02-10.96 0-.89.21-1.11 1.1-1.11 7.23.04 14.45.02 21.66.02 7.21 0 14.44 0 21.65-.01.85 0 1.15.15 1.14 1.08-.06 4.17-.07 8.34 0 12.5.06 3.99-1.86 7.14-4.18 10.1-3.41 4.34-7.7 7.76-11.83 11.36-1.59 1.4-3.27 2.14-5.39 1.91-.71-.09-1.43-.09-2.14 0-2.59.34-4.61-.59-6.55-2.32-3.89-3.51-7.97-6.8-11.24-10.94v.01zm8.37 15.17c.16 0 .26-.03.31 0 2.44 2.45 5.39 3.33 8.79 3.05 1.42-.12 2.87-.03 4.28-.02 2 .02 3.95-.68 5.48-1.97l1.59-1.3c.35 6.58 1.01 8.16 4.53 11-6.11 5.92-21.61 5.97-29.52.03 3.74-2.65 4.9-6.42 4.53-10.8l.01.01zM31.25 100.8c-1.01 0-1.37-.17-1.32-1.27.1-2.38.05-4.76 0-7.14 0-.64.17-.98.85-.91.04.01.08.01.12 0 3.36-.85 6.2-.11 9.16 1.88a30.428 30.428 0 0018.68 5.26c6.86-.32 12.91-2.92 18.51-6.72 1.64-1.12 1.75-1.14 4.06-.62-2.36 2.73-4.7 5.32-6.89 8.03-.91 1.12-1.85 1.51-3.3 1.5-13.29-.06-26.58-.07-39.87-.01zm66.56-5.31c-.58-.13-1.18-.09-1.74.11-.55.2-1.04.56-1.4 1.03-5.42 6.28-10.85 12.55-16.29 18.81-1.16 1.35-2.61 1.97-4.34 1.45-.84-.22-1.59-.67-2.17-1.31-.58-.64-.96-1.43-1.1-2.28-.27-1.41.32-2.55 1.21-3.57 4.88-5.64 9.77-11.28 14.65-16.93.1-.11.2-.24.32-.35 1.78-1.62 2.31-3.32 1.68-5.88-1.49-6.02 2.59-12.15 8.37-13.27.04.03.08.08.12.11-.34.96-1.02 1.68-1.56 2.5-2.42 3.76-1.87 8.4 1.39 11.35 3.2 2.89 8.02 2.95 11.43.1.82-.67 1.59-1.41 2.53-2.26.08.58.04 1.16-.12 1.72-1.44 5.96-6.89 9.65-13 8.67h.02z" fill="#5C5C5C"/></g></svg>